<svg version="1.2" xmlns="http://www.w3.org/2000/svg" viewBox="6.000000000000005 56.99999999999999 282 91.99999999999997" width="282" height="93">
	<style>
		.s0 { fill: #202020 } 
		.s1 { fill: #515151 } 
		.s2 { fill: #000000 } 
		.s3 { fill: #9fcbff } 
		.s4 { fill: #78bf3d } 
		.s5 { fill: #1c8230 } 
		.s6 { fill: #f3c811 } 
		.s7 { fill: #304c99 } 
		.s8 { fill: #17459e } 
		.s9 { fill: #ed1c24 } 
		.s10 { fill: #ffffff } 
		.s11 { fill: #ffcf00 } 
		.s12 { fill: #32529f } 
		.s13 { fill: #e42320 } 
		.s14 { fill: #4cac33 } 
	</style>
	<g id="Camada 1">
		<path id="&lt;Path&gt;" class="s0" d="m2284.48 369.16h-1.93 1.93q0.22 0 0.43-0.03-0.21 0.03-0.43 0.03z"/>
		<path id="&lt;Path&gt;" class="s0" d="m2284.91 369.13q0.01 0 0.01 0 0.03 0 0.06 0-0.03 0-0.07 0z"/>
		<path id="&lt;Path&gt;" class="s0" d="m2289.61 362.58q-0.01 0.83-0.15 1.59 0.14-0.76 0.15-1.59 0-1.48-0.3-2.63 0.3 1.15 0.3 2.63z"/>
		<path id="&lt;Path&gt;" class="s0" d="m2287.47 357.02q-0.77-0.56-1.78-0.76 1.35 0.27 2.27 1.17-0.23-0.23-0.49-0.41z"/>
		<path id="&lt;Path&gt;" class="s1" d="m2289.31 359.95q-0.16-0.65-0.42-1.19-0.26-0.55-0.61-0.98-0.15-0.19-0.32-0.35 0.16 0.16 0.32 0.35 0.7 0.87 1.03 2.17z"/>
		<path id="&lt;Path&gt;" class="s1" d="m2289 365.84q-0.1 0.22-0.21 0.43 0.11-0.21 0.21-0.43 0.14-0.34 0.25-0.7 0.06-0.23 0.11-0.47-0.14 0.6-0.36 1.17z"/>
		<path id="&lt;Path&gt;" class="s1" d="m2282.55 356.15h1.93q0.58 0 1.1 0.09-0.52-0.09-1.1-0.09h-1.93v13.01z"/>
		<path id="&lt;Path&gt;" class="s1" d="m2285.46 369.05q0.96-0.2 1.76-0.8 0.15-0.12 0.29-0.26-0.14 0.14-0.3 0.26-0.79 0.6-1.75 0.8z"/>
		<path id="&lt;Path&gt;" class="s0" d="m2354.06 369.55h-0.62q0 0 0 0.01h0.62q0-0.01 0-0.01z"/>
		<path id="&lt;Path&gt;" class="s0" d="m2353.83 365.36l-9.69 5.5q0 0 0 0l9.69-5.5q0 0 0 0z"/>
		<path id="&lt;Path&gt;" class="s0" d="m2351.81 371.74q0.95-0.89 1.57-2.08-0.62 1.19-1.57 2.08z"/>
		<path id="&lt;Path&gt;" class="s0" d="m2353.42 372.07q0.01-0.02 0.02-0.03 0.22-0.53 0.35-1.05-0.13 0.52-0.35 1.05-0.01 0.01-0.02 0.03z"/>
		<path id="&lt;Path&gt;" class="s2" d="m2289.43 364.4q-0.03 0.14-0.07 0.27 0.04-0.13 0.07-0.27 0.02-0.11 0.03-0.23-0.01 0.12-0.03 0.23z"/>
		<path id="&lt;Compound Path&gt;" class="s2" d="m2282.55 369.95h1.93q4.59 0 7.03-1.93 2.44-1.92 2.44-5.44 0-3.51-2.41-5.28-2.41-1.78-7.06-1.78h-6.24v19.76h4.31zm0-13.8h1.93q0.58 0 1.1 0.09 0.03 0 0.06 0.01 0.02 0 0.05 0.01 1.01 0.2 1.78 0.76 0.26 0.18 0.49 0.41 0.17 0.16 0.32 0.35 0.35 0.43 0.61 0.97 0.26 0.55 0.42 1.2 0.3 1.15 0.3 2.63 0 0.95-0.18 1.82-0.08 0.38-0.18 0.73-0.11 0.36-0.25 0.71-0.1 0.22-0.21 0.43-0.49 1.01-1.28 1.72-0.14 0.14-0.29 0.26-0.8 0.6-1.76 0.8-0.26 0.05-0.54 0.08-0.22 0.02-0.44 0.03h-1.93z"/>
		<path id="&lt;Path&gt;" class="s2" d="m2284.92 369.13q0.28-0.03 0.54-0.08-0.24 0.05-0.48 0.08-0.03 0-0.06 0z"/>
		<path id="&lt;Path&gt;" class="s2" d="m2289.43 364.4q0.18-0.87 0.18-1.82-0.01 0.83-0.15 1.59-0.01 0.12-0.03 0.23z"/>
		<path id="&lt;Path&gt;" class="s2" d="m2289.25 365.14q0.1-0.36 0.18-0.74-0.03 0.14-0.07 0.27-0.05 0.24-0.11 0.47z"/>
		<path id="&lt;Path&gt;" class="s2" d="m2288.79 366.27q0.11-0.21 0.21-0.43 0.14-0.34 0.25-0.7-0.11 0.36-0.25 0.7-0.1 0.22-0.21 0.43z"/>
		<path id="&lt;Compound Path&gt;" class="s2" d="m2296.98 373.18q1.13 1.36 2.75 2.09 1.61 0.72 3.31 0.72 1.37 0 2.67-0.47 1.3-0.47 2.35-1.37 0.99-0.85 1.53-2.11 0.54-1.27 0.63-2.49h-0.63q-0.74 1.48-1.97 2.5-1.23 1.02-2.76 1.02-2.16 0-4.56-2.21l9.69-5.5q-0.88-2.38-2.79-3.61-1.92-1.24-4.24-1.24-1.33 0-2.64 0.41-1.3 0.42-2.35 1.21-1.42 1.05-2.15 2.59-0.74 1.55-0.74 3.25 0 1.39 0.48 2.75 0.48 1.36 1.42 2.46zm0.85-9.28q0.28-0.69 0.76-1.06 0.83-0.6 1.88-0.6 1.3 0 2.66 1.01 1.36 1 2.52 3.16l-6.32 3.46q-0.91-1.05-1.34-2.2-0.44-1.15-0.44-2.2 0-0.87 0.28-1.57z"/>
		<path id="&lt;Path&gt;" class="s2" d="m2326.46 359.78q0.96 0 1.65-0.7 0.7-0.69 0.7-1.66 0-0.99-0.68-1.67-0.68-0.68-1.67-0.68-0.97 0-1.66 0.68-0.7 0.68-0.7 1.67 0 0.97 0.7 1.66 0.69 0.7 1.66 0.7z"/>
		<path id="&lt;Path&gt;" class="s2" d="m2324.42 375.31h4.02v-14.17h-6.21v1.1h2.19z"/>
		<path id="&lt;Path&gt;" class="s2" d="m2368.26 375.31h4.03v-14.17h-6.21v1.1h2.18z"/>
		<path id="&lt;Path&gt;" class="s2" d="m2360.35 365.73q0-1.02 0.34-1.32 0.34-0.3 1.05-0.3h1.39l0.68-3.4q-1.84 0-2.79 1.05-0.95 1.05-1.06 2.58h-0.43l-0.76-3.26h-2.44v14.23h4.02z"/>
		<path id="&lt;Path&gt;" class="s2" d="m2370.3 359.78q0.97 0 1.66-0.7 0.69-0.69 0.7-1.66 0-0.99-0.69-1.67-0.67-0.68-1.67-0.68-0.96 0-1.66 0.68-0.69 0.68-0.69 1.67 0 0.97 0.69 1.66 0.7 0.7 1.66 0.7z"/>
		<path id="&lt;Compound Path&gt;" class="s2" d="m2382.04 365.47q-0.94-0.51-2.19-0.51-2.38 0-3.93 1.41-1.56 1.4-1.56 4.04 0 1.72 0.69 2.96 0.69 1.23 1.81 1.84 1.12 0.61 2.4 0.61 1.47 0 2.62-0.95 1.15-0.95 1.8-2.34h0.4l0.76 2.78h2.27v-14.17h-11.34v2.04h7.4l0.79 3.54h-0.45q-0.54-0.74-1.47-1.25zm1.13 5.64q-0.17 1.02-0.82 1.73-0.65 0.71-1.79 0.71-1.16 0-1.95-0.92-0.8-0.92-0.8-2.22 0-1.68 0.75-2.75 0.76-1.08 2.26-1.08 1.27 0 1.81 0.82 0.54 0.82 0.54 1.7z"/>
		<path id="&lt;Path&gt;" class="s2" d="m2316.51 365.73q0-1.02 0.34-1.32 0.34-0.3 1.05-0.3h1.39l0.68-3.4q-1.85 0-2.8 1.05-0.95 1.05-1.06 2.58h-0.42l-0.77-3.26h-2.44v14.23h4.03z"/>
		<path id="&lt;Path&gt;" class="s2" d="m2331.9 375.31h4.08v-13.04h2.21v-1.13h-2.24v-4.71h2.72v-0.91h-6.77v5.62h-0.82v1.13h0.82z"/>
		<path id="&lt;Path&gt;" class="s2" d="m2417.41 375.31h4.02v-14.17h-6.2v1.1h2.18z"/>
		<path id="&lt;Path&gt;" class="s2" d="m2408.99 375.31l3.97-19.78h-4.34l-3.4 18.9h-1.19l-2.92-18.9h-4.33l3.71 19.78z"/>
		<path id="&lt;Compound Path&gt;" class="s2" d="m2444.39 365.47q-0.93-0.51-2.18-0.51-2.38 0-3.94 1.41-1.56 1.4-1.56 4.04 0 1.73 0.7 2.96 0.69 1.23 1.81 1.84 1.12 0.61 2.39 0.61 1.48 0 2.63-0.95 1.14-0.95 1.8-2.34h0.39l0.76 2.78h2.28v-14.17h-11.34v2.04h7.4l0.79 3.54h-0.45q-0.54-0.74-1.48-1.25zm1.14 5.64q-0.17 1.02-0.83 1.73-0.65 0.71-1.78 0.71-1.16 0-1.96-0.92-0.79-0.92-0.79-2.22 0-1.68 0.75-2.75 0.75-1.08 2.25-1.08 1.28 0 1.82 0.82 0.54 0.82 0.54 1.7z"/>
		<path id="&lt;Path&gt;" class="s2" d="m2433.82 375.31l2.32-14.17h-4.02l-1.56 13.55h-0.91l-1.56-13.55h-4.02l2.32 14.17z"/>
		<path id="&lt;Compound Path&gt;" class="s2" d="m2340.83 373.18q1.13 1.36 2.75 2.09 1.61 0.72 3.31 0.72 1.36 0 2.67-0.47 1.3-0.47 2.35-1.37 0.98-0.84 1.51-2.08 0.01-0.02 0.02-0.03 0.27-0.63 0.42-1.25 0 0 0-0.01 0.01-0.02 0.01-0.04 0.15-0.6 0.19-1.18h-0.62q-0.03 0.05-0.06 0.1-0.62 1.19-1.57 2.08-0.16 0.16-0.34 0.31-0.15 0.12-0.31 0.22-0.47 0.33-0.97 0.53-0.01 0.01-0.03 0.01-0.69 0.26-1.45 0.26-0.54 0-1.1-0.14-0.27-0.07-0.56-0.17-0.56-0.21-1.14-0.55-0.29-0.18-0.58-0.38-0.59-0.42-1.19-0.97 0 0 0 0l9.69-5.5q0 0 0 0h0.01q-0.88-2.38-2.8-3.61-1.91-1.24-4.23-1.24-1.34 0-2.64 0.41-1.3 0.42-2.35 1.21-1.42 1.05-2.16 2.59-0.73 1.55-0.73 3.25 0 1.39 0.48 2.75 0.48 1.36 1.42 2.46zm0.85-9.28q0.28-0.69 0.76-1.06 0.82-0.6 1.87-0.6 1.31 0 2.67 1.01 1.36 1.01 2.52 3.16l-6.32 3.46q-0.91-1.05-1.35-2.2-0.44-1.15-0.44-2.2 0-0.87 0.29-1.57z"/>
		<path id="&lt;Path&gt;" class="s2" d="m2353.86 370.79q-0.03 0.1-0.07 0.2 0.04-0.1 0.07-0.2 0 0 0-0.01 0.01-0.02 0.01-0.04 0 0.02-0.01 0.04 0 0.01 0 0.01z"/>
		<path id="&lt;Path&gt;" class="s2" d="m2347.19 372.8q-0.19-0.06-0.38-0.14 0.12 0.05 0.24 0.1 0.07 0.02 0.14 0.04z"/>
		<path id="&lt;Path&gt;" class="s2" d="m2347.61 372.93q-0.21-0.05-0.42-0.13-0.07-0.02-0.14-0.04 0.29 0.1 0.56 0.17z"/>
		<path id="&lt;Path&gt;" class="s2" d="m2347.05 372.76q-0.12-0.05-0.24-0.1-0.44-0.19-0.9-0.45 0.58 0.34 1.14 0.55z"/>
		<path id="&lt;Path&gt;" class="s2" d="m2351.16 372.27q0.16-0.1 0.31-0.22 0.18-0.15 0.34-0.31-0.16 0.16-0.34 0.31-0.15 0.12-0.31 0.22z"/>
		<path id="&lt;Path&gt;" class="s2" d="m2353.44 369.56q-0.03 0.05-0.06 0.1 0.03-0.05 0.06-0.1z"/>
		<path id="&lt;Path&gt;" class="s2" d="m2353.83 365.36z"/>
		<path id="&lt;Path&gt;" class="s2" d="m2351.81 371.74q0.95-0.89 1.57-2.08-0.62 1.19-1.57 2.08z"/>
		<path id="&lt;Path&gt;" class="s2" d="m2353.44 372.04q0.22-0.53 0.35-1.05 0.04-0.1 0.07-0.2-0.15 0.62-0.42 1.25z"/>
		<path id="&lt;Path&gt;" class="s2" d="m2278.24 379.82v1.88h172.02v-1.88z"/>
		<g id="&lt;Group&gt;">
			<g id="&lt;Group&gt;">
				<path id="&lt;Path&gt;" class="s3" d="m6.9 133.09l48.06 7.89 40.3-7.51c1.81-0.34 3.12-1.92 3.12-3.75v-43.62c0-0.47-0.25-0.9-0.65-1.14l-44.39-26.79c-0.43-0.26-0.97-0.26-1.4 0l-44.4 27.29c-0.4 0.24-0.64 0.68-0.64 1.14z"/>
				<path id="&lt;Path&gt;" class="s4" d="m50.32 148.51l-42.76-7.85c-0.39-0.07-0.66-0.41-0.66-0.8v-28.43l8.99-5.65 82.49 16.14v16.79c0 0.39-0.28 0.72-0.66 0.8z"/>
				<path id="&lt;Path&gt;" class="s5" d="m49.12 148.6l-41.65-7.89c-0.55-0.11-0.75-0.79-0.34-1.17l8.76-7.76 71.35 3.53-14.84 9.01-21.68 4.28q-0.8 0.15-1.6 0z"/>
				<path id="&lt;Path&gt;" class="s6" d="m66.18 77.44c0 9.46 7.67 17.12 17.13 17.12 9.46 0 17.13-7.66 17.13-17.12 0-9.46-7.67-17.13-17.13-17.13-9.46 0-17.13 7.67-17.13 17.13z"/>
				<g id="&lt;Group&gt;">
					<path id="&lt;Path&gt;" class="s7" d="m66.18 90.82l0.03 0.02v-0.02z"/>
				</g>
				<g id="&lt;Group&gt;">
					<path id="&lt;Path&gt;" class="s6" d="m49.26 105.8h-34.9c-1.43 0-2.15-1.71-1.17-2.73l13.92-14.48c0.3-0.32 0.72-0.5 1.16-0.5h34.37c1.43 0 2.15 1.72 1.16 2.74l-14.54 14.95z"/>
					<path id="&lt;Path&gt;" class="s8" d="m33.11 88.09v-0.01l-17.22 17.7v25.74c0 2.05 1.46 3.8 3.48 4.18l6.9 1.29 6.05 1.12 18 3.36v-35.65-0.02-0.02z"/>
					<path id="&lt;Path&gt;" class="s6" d="m50.31 141.47l35.97-5.9c1.82-0.29 3.16-1.87 3.16-3.72v-26.03h-39.13z"/>
					<path id="&lt;Path&gt;" class="s9" d="m59.55 113.43h7.58c0.96 0 1.74 0.78 1.74 1.74v23.26l-11.05 1.84v-25.1c0-0.96 0.77-1.74 1.73-1.74z"/>
					<path id="&lt;Path&gt;" class="s9" d="m74.37 113.42l8.81 0.01c0.62 0 1.12 0.5 1.12 1.12v7.53c0 0.59-0.46 1.08-1.05 1.12l-5 0.32-3.8 0.27c-0.65 0.05-1.2-0.47-1.2-1.12v-8.12c0-0.62 0.5-1.13 1.12-1.13z"/>
					<path id="&lt;Path&gt;" class="s9" d="m46.36 106.68h44.46c1.84 0 2.72-2.26 1.37-3.51l-15.85-14.55c-0.37-0.34-0.86-0.53-1.37-0.53h-42.63c-1.78 0-2.69 2.14-1.45 3.43l14.02 14.54c0.38 0.4 0.9 0.62 1.45 0.62z"/>
					<g id="&lt;Group&gt;">
						<path id="&lt;Path&gt;" class="s10" d="m34.59 86.79c1.37 0.44 1.37 2.37 0 2.81-2.65 0.85-4.72 2.92-5.56 5.56-0.44 1.37-2.38 1.37-2.82 0-0.85-2.64-2.92-4.71-5.56-5.56-1.37-0.44-1.37-2.37 0-2.81 2.64-0.85 4.71-2.92 5.56-5.57 0.44-1.36 2.38-1.36 2.82 0 0.84 2.65 2.91 4.72 5.56 5.57z"/>
					</g>
					<g id="&lt;Group&gt;">
						<path id="&lt;Path&gt;" class="s10" d="m59.29 104.87c1.77 0.57 1.77 3.06 0 3.63-3.4 1.09-6.07 3.76-7.17 7.16-0.56 1.77-3.06 1.77-3.62 0-1.1-3.4-3.77-6.07-7.17-7.16-1.76-0.57-1.76-3.06 0-3.63 3.4-1.09 6.07-3.76 7.17-7.17 0.56-1.76 3.06-1.76 3.62 0 1.1 3.41 3.77 6.08 7.17 7.17z"/>
					</g>
					<g id="&lt;Group&gt;">
						<path id="&lt;Path&gt;" class="s10" d="m53.18 75.4c0.83 0.27 0.83 1.43 0 1.7-1.59 0.51-2.83 1.76-3.34 3.35-0.27 0.82-1.44 0.82-1.7 0-0.51-1.59-1.76-2.84-3.35-3.35-0.82-0.27-0.82-1.43 0-1.7 1.59-0.51 2.84-1.76 3.35-3.35 0.26-0.82 1.43-0.82 1.7 0 0.51 1.59 1.75 2.84 3.34 3.35z"/>
					</g>
				</g>
			</g>
			<g id="&lt;Group&gt;">
				<path id="&lt;Path&gt;" class="s11" d="m134.63 80.2q-0.28 0.69-0.28 1.57 0 1.05 0.44 2.2 0.44 1.15 1.35 2.2l6.32-3.46q-1.16-2.16-2.52-3.16-1.37-1.01-2.67-1.01-1.05 0-1.87 0.6-0.48 0.36-0.77 1.06z"/>
				<path id="&lt;Path&gt;" class="s0" d="m124.31 84.29q0.79-0.71 1.29-1.72-0.5 1.01-1.29 1.72z"/>
				<path id="&lt;Path&gt;" class="s0" d="m119.36 85.46h1.92q0.52-0.01 0.99-0.11-0.47 0.1-0.98 0.11z"/>
				<path id="&lt;Path&gt;" class="s0" d="m122.39 72.54q0.03 0.01 0.06 0.01-0.03 0-0.06-0.01z"/>
				<path id="&lt;Path&gt;" class="s0" d="m126.12 76.25q0.29 1.15 0.29 2.63 0 0.95-0.18 1.82 0.18-0.87 0.19-1.82-0.01-1.48-0.3-2.63z"/>
				<path id="&lt;Path&gt;" class="s0" d="m124.76 73.73q-0.91-0.9-2.27-1.17 1.36 0.27 2.27 1.17z"/>
				<path id="&lt;Path&gt;" class="s12" d="m122.45 72.55q0.02 0 0.04 0.01-0.02-0.01-0.04-0.01z"/>
				<path id="&lt;Path&gt;" class="s12" d="m126.12 76.25q-0.33-1.3-1.04-2.17-0.15-0.19-0.32-0.35 0.17 0.16 0.32 0.35 0.71 0.87 1.04 2.17z"/>
				<path id="&lt;Path&gt;" class="s12" d="m125.6 82.57q0.11-0.21 0.21-0.43 0.27-0.69 0.42-1.44-0.15 0.75-0.42 1.44-0.1 0.22-0.21 0.43z"/>
				<path id="&lt;Path&gt;" class="s12" d="m121.28 72.45q0.59 0 1.11 0.09-0.52-0.09-1.1-0.09h-1.93v13.01-13.01z"/>
				<path id="&lt;Path&gt;" class="s12" d="m122.27 85.35q0.96-0.2 1.75-0.8 0.15-0.12 0.29-0.26-0.14 0.14-0.29 0.26-0.79 0.6-1.75 0.8z"/>
				<path id="&lt;Path&gt;" class="s12" d="m126.12 76.25q-0.33-1.3-1.04-2.17-0.15-0.19-0.32-0.35-0.91-0.9-2.27-1.17-0.02-0.01-0.04-0.01-0.03 0-0.06-0.01-0.52-0.09-1.11-0.09h-1.92v13.01h1.93q0.51-0.01 0.98-0.11 0.96-0.2 1.75-0.8 0.15-0.12 0.29-0.26 0.79-0.71 1.29-1.72 0.11-0.21 0.21-0.43 0.27-0.69 0.42-1.44 0.18-0.87 0.18-1.82 0-1.48-0.29-2.63z"/>
				<path id="&lt;Path&gt;" class="s12" d="m183.78 79.55q-1.36-1.01-2.66-1.01-1.05 0-1.87 0.6-0.49 0.37-0.77 1.06-0.28 0.69-0.28 1.57 0 1.05 0.44 2.2 0.44 1.15 1.34 2.2l6.32-3.46q-1.16-2.16-2.52-3.16z"/>
				<path id="&lt;Path&gt;" class="s13" d="m161.22 78.54h-2.18v13.07h2.74z"/>
				<path id="&lt;Path&gt;" class="s14" d="m213.87 91.61h-4.78v-14.17h3.49v2.04h7.4l0.79 3.54h-0.45q-0.54-0.74-1.48-1.25-0.93-0.51-2.18-0.51-2.38 0-3.94 1.41-1.56 1.4-1.56 4.03 0 1.73 0.7 2.97 0.69 1.23 1.81 1.84 0.1 0.05 0.2 0.1z"/>
				<path id="&lt;Path&gt;" class="s14" d="m219.98 87.41v-2.01q0-0.88-0.54-1.7-0.54-0.82-1.82-0.82-1.5 0-2.25 1.07-0.75 1.08-0.75 2.75 0 1.31 0.79 2.23 0.8 0.92 1.96 0.92 1.13 0 1.78-0.71 0.66-0.71 0.83-1.73z"/>
				<path id="&lt;Path&gt;" class="s14" d="m220.49 88.83q-0.66 1.39-1.8 2.34-0.31 0.25-0.64 0.44h3.59l-0.76-2.78z"/>
				<path id="&lt;Path&gt;" class="s13" d="m248.64 77.44h3.39v1.1h2.18v13.07h-8.41z"/>
				<path id="&lt;Path&gt;" class="s14" d="m277.77 88.93q0.79 0.92 1.95 0.92 1.14 0 1.79-0.71 0.65-0.71 0.82-1.73v-2.01q0-0.88-0.54-1.7-0.54-0.82-1.81-0.82-1.5 0-2.25 1.08-0.76 1.07-0.76 2.74 0 1.31 0.8 2.23z"/>
				<path id="&lt;Path&gt;" class="s2" d="m257.93 72.05q0.68 0.68 0.68 1.67 0 0.97-0.7 1.66-0.69 0.7-1.65 0.7-0.97 0-1.66-0.7-0.7-0.69-0.7-1.66 0-0.99 0.7-1.67 0.69-0.68 1.66-0.68 0.99 0 1.67 0.68z"/>
				<path id="&lt;Path&gt;" class="s11" d="m240.84 90.73h1.19l3.4-18.91h-7.51z"/>
				<path id="&lt;Path&gt;" class="s12" d="m190.64 81.66l-9.69 5.5q2.41 2.21 4.56 2.21 0.77 0 1.46-0.26 0.01 0 0.03-0.01 0.67-0.25 1.27-0.75 0.18-0.15 0.35-0.32 0.94-0.88 1.56-2.07 0.03-0.05 0.06-0.11 0 0 0 0h0.63q0 0 0 0-0.04 0.59-0.19 1.19-0.01 0.02-0.01 0.04 0 0.01 0 0.01-0.16 0.62-0.43 1.24 0 0.02-0.01 0.04-0.1 0.22-0.21 0.44c0.25-0.44 0.45-0.91 0.63-1.45q0.48-1.43 0.48-2.89 0-1.46-0.49-2.81z"/>
				<path id="&lt;Path&gt;" class="s0" d="m186.97 89.11q0.01 0 0.03-0.01-0.02 0.01-0.03 0.01z"/>
				<path id="&lt;Path&gt;" class="s0" d="m190.87 85.85h-0.63q0 0 0 0h0.63q0 0 0 0z"/>
				<path id="&lt;Path&gt;" class="s0" d="m180.95 87.16q0 0 0 0l9.69-5.5q0 0 0 0z"/>
				<path id="&lt;Path&gt;" class="s0" d="m190.18 85.96q-0.62 1.19-1.56 2.07 0.94-0.88 1.56-2.07z"/>
				<path id="&lt;Path&gt;" class="s0" d="m190.67 87.09q-0.16 0.62-0.43 1.24 0 0.02-0.01 0.04 0.01-0.02 0.01-0.04 0.27-0.62 0.43-1.24z"/>
				<path id="&lt;Path&gt;" class="s0" d="m190.68 87.04q-0.01 0.02-0.01 0.04 0-0.02 0.01-0.04z"/>
				<path id="&lt;Compound Path&gt;" class="s2" d="m119.36 86.25h1.92q4.6 0 7.03-1.93 2.44-1.92 2.44-5.44 0-3.51-2.41-5.28-2.41-1.78-7.06-1.78h-6.23v19.76h4.31zm0-13.8h1.93q0.58 0 1.1 0.09 0.03 0 0.06 0.01 0.02 0 0.04 0.01 1.36 0.26 2.27 1.17 0.17 0.16 0.32 0.35 0.71 0.86 1.04 2.17 0.29 1.14 0.3 2.63-0.01 0.95-0.19 1.82-0.15 0.75-0.42 1.44-0.1 0.22-0.21 0.43-0.5 1.01-1.29 1.72-0.14 0.13-0.29 0.26-0.79 0.6-1.75 0.79-0.47 0.11-0.99 0.12h-1.92z"/>
				<path id="&lt;Compound Path&gt;" class="s2" d="m133.78 89.48q1.14 1.36 2.75 2.09 1.62 0.72 3.32 0.72 1.36 0 2.66-0.47 1.31-0.47 2.36-1.37 0.99-0.85 1.53-2.12 0.54-1.26 0.62-2.48h-0.62q-0.74 1.48-1.97 2.5-1.24 1.02-2.77 1.02-2.15 0-4.56-2.21l9.69-5.5q-0.87-2.38-2.79-3.61-1.91-1.24-4.23-1.24-1.34 0-2.64 0.41-1.31 0.41-2.35 1.21-1.42 1.05-2.16 2.59-0.74 1.55-0.73 3.25 0 1.39 0.48 2.75 0.48 1.36 1.41 2.46zm0.85-9.28q0.29-0.69 0.77-1.06 0.82-0.6 1.87-0.6 1.3 0 2.67 1.01 1.36 1 2.52 3.16l-6.32 3.46q-0.91-1.05-1.35-2.2-0.44-1.15-0.44-2.2 0-0.88 0.28-1.57z"/>
				<path id="&lt;Path&gt;" class="s2" d="m163.26 76.08q0.96 0 1.66-0.7 0.69-0.69 0.69-1.66 0-0.99-0.68-1.67-0.68-0.68-1.67-0.68-0.96 0-1.66 0.68-0.69 0.68-0.69 1.67 0 0.97 0.69 1.66 0.7 0.7 1.66 0.7z"/>
				<path id="&lt;Path&gt;" class="s2" d="m161.22 91.61h4.03v-14.17h-6.21v1.1h2.18z"/>
				<path id="&lt;Path&gt;" class="s2" d="m205.07 91.61h4.02v-14.17h-6.21v1.1h2.19z"/>
				<path id="&lt;Path&gt;" class="s2" d="m197.16 82.03q0-1.02 0.34-1.32 0.34-0.3 1.05-0.3h1.39l0.68-3.4q-1.85 0-2.79 1.05-0.95 1.05-1.07 2.58h-0.42l-0.77-3.26h-2.44v14.23h4.03z"/>
				<path id="&lt;Path&gt;" class="s2" d="m207.11 76.08q0.96 0 1.66-0.7 0.69-0.69 0.69-1.66 0-0.99-0.68-1.67-0.68-0.68-1.67-0.68-0.97 0-1.66 0.68-0.69 0.68-0.69 1.67 0 0.97 0.69 1.66 0.69 0.7 1.66 0.7z"/>
				<path id="&lt;Compound Path&gt;" class="s2" d="m218.84 81.77q-0.93-0.51-2.18-0.51-2.38 0-3.94 1.41-1.56 1.4-1.56 4.03 0 1.73 0.7 2.97 0.69 1.23 1.81 1.84 1.12 0.61 2.39 0.61 1.48 0 2.63-0.95 1.14-0.95 1.8-2.34h0.39l0.76 2.78h2.28v-14.17h-11.34v2.04h7.4l0.79 3.54h-0.45q-0.54-0.74-1.48-1.25zm1.14 5.64q-0.17 1.02-0.83 1.73-0.65 0.71-1.78 0.71-1.16 0-1.96-0.92-0.79-0.92-0.79-2.23 0-1.67 0.75-2.75 0.75-1.07 2.25-1.07 1.28 0 1.82 0.82 0.54 0.82 0.54 1.7z"/>
				<path id="&lt;Path&gt;" class="s2" d="m153.31 82.03q0-1.02 0.34-1.32 0.34-0.3 1.05-0.3h1.39l0.68-3.4q-1.84 0-2.79 1.05-0.95 1.05-1.06 2.58h-0.43l-0.76-3.26h-2.44v14.23h4.02z"/>
				<path id="&lt;Path&gt;" class="s2" d="m168.7 91.61h4.08v-13.04h2.22v-1.13h-2.24v-4.71h2.72v-0.91h-6.78v5.62h-0.82v1.13h0.82z"/>
				<path id="&lt;Path&gt;" class="s2" d="m254.21 91.61h4.03v-14.17h-6.21v1.1h2.18z"/>
				<path id="&lt;Path&gt;" class="s2" d="m245.8 91.61l3.97-19.79h-4.34l-3.4 18.91h-1.19l-2.92-18.91h-4.34l3.71 19.79z"/>
				<path id="&lt;Compound Path&gt;" class="s2" d="m274.93 77.44v2.04h7.4l0.79 3.54h-0.45q-0.54-0.74-1.47-1.25-0.94-0.51-2.18-0.51-2.39 0-3.94 1.41-1.56 1.4-1.56 4.03 0 1.73 0.69 2.97 0.7 1.23 1.82 1.84 1.11 0.61 2.39 0.61 1.47 0 2.62-0.95 1.15-0.95 1.8-2.34h0.4l0.76 2.78h2.27v-14.17zm7.4 9.97q-0.17 1.02-0.82 1.73-0.66 0.71-1.79 0.71-1.16 0-1.95-0.92-0.8-0.92-0.8-2.23 0-1.67 0.75-2.74 0.75-1.08 2.26-1.08 1.27 0 1.81 0.82 0.54 0.82 0.54 1.7z"/>
				<path id="&lt;Path&gt;" class="s2" d="m270.63 91.61l2.32-14.17h-4.03l-1.55 13.54h-0.91l-1.56-13.54h-4.02l2.32 14.17z"/>
				<path id="&lt;Compound Path&gt;" class="s2" d="m177.63 89.48q1.13 1.36 2.75 2.09 1.62 0.72 3.32 0.72 1.36 0 2.66-0.47 1.3-0.47 2.35-1.37 0.98-0.84 1.52-2.08 0.01-0.02 0.01-0.04 0.27-0.62 0.43-1.24 0 0 0-0.01 0-0.02 0.01-0.04 0.15-0.6 0.19-1.19h-0.63q-0.03 0.06-0.06 0.11-0.62 1.19-1.56 2.07-0.17 0.17-0.35 0.32-0.6 0.5-1.27 0.75-0.02 0.01-0.03 0.01-0.69 0.26-1.46 0.26-2.15 0-4.56-2.21 0 0 0 0l9.69-5.5q0 0 0 0-0.88-2.38-2.79-3.61-1.91-1.24-4.24-1.24-1.33 0-2.63 0.41-1.31 0.41-2.36 1.21-1.41 1.05-2.15 2.59-0.74 1.55-0.74 3.25 0 1.39 0.48 2.75 0.49 1.36 1.42 2.46zm0.85-9.28q0.28-0.69 0.77-1.06 0.82-0.6 1.87-0.6 1.3 0 2.66 1.01 1.36 1 2.52 3.16l-6.32 3.46q-0.9-1.05-1.34-2.2-0.44-1.15-0.44-2.2 0-0.88 0.28-1.57z"/>
			</g>
			<path id="&lt;Path&gt;" class="s2" d="m115.05 98h172.01v-1.88h-172.01z"/>
			<g id="&lt;Group&gt;">
				<path id="&lt;Compound Path&gt;" class="s2" d="m134 137.26l0.1-0.69-0.35-2.03-0.34-0.35 0.15-0.19-0.5-2.62-2.07-8.11-1.19-5.68 0.35-0.35h1.28l2.87 0.2v-0.2-0.25l-0.75-7.56v-0.35-1.33l-0.74-2.67v-1.19h-17.7v18.29 1.34 0.49 2.52 0.25 0.35 6.42 0.5 0.69 4.25 0.05 0.05 0.84 0.44l5.54-0.19 0.5-4.5-0.15-3.36v-4.06l-0.79-10.77h3.81l0.74 4.15 2.07 9.79 0.69 2.42 2.28 6.62h5.04l-0.39-2.72zm-4.8-24.66h-9.19l0.29-0.7v-1.03l-0.29-1.49h9.19l-0.1 1.78z"/>
				<path id="&lt;Path&gt;" class="s2" d="m152.59 132.32l-1.19 0.34h-8.05l-0.6-0.29v-4.31l0.2-4.1 8.16-0.44v-3.12-2.55h-3.32-1.78l-3.06-0.17-0.59-6.32 0.19-1.4 9.3-0.48h3.46l-0.6-2.57 0.15-0.5v-2.32l-0.19-0.59h-17.02v5.48 0.5 1.04 12.01 16.26h18.05l-0.15-2.17 0.6-4.9z"/>
				<path id="&lt;Path&gt;" class="s2" d="m156.89 112.49v22.45l0.25 4.49 2.57-0.19 2.46 0.49v-8.55-1.53l0.11-4.16h8.35l0.4-0.89-0.35-3.6v-2.67l-4.99 0.39h-2.27l-0.99-0.34v-8.36h12.01v-6.23h-17.1z"/>
				<path id="&lt;Compound Path&gt;" class="s2" d="m195.75 103.7h-13.2l-5.41-0.25v5.34 0.59 4.05 3.27 22.98h19.3l-0.69-12.8zm-5.05 30.94h-7.86l-0.13-15.67v-0.15-0.44-0.69-0.45l-0.41-8.35h7.56l0.35 0.59 0.49 9.15z"/>
				<path id="&lt;Compound Path&gt;" class="s2" d="m218.39 134l-0.5-2.62-2.07-8.11-1.19-5.68 0.35-0.35h1.28l2.87 0.2v-0.2-0.25l-0.98-7.46v-0.35-1.33l-0.58-2.77v-1.19h-17.63v18.29 1.34 0.49 2.52 0.25 0.35 6.42 0.5 0.69 4.25 0.05 0.05 0.84 0.44l5.55-0.19 0.49-4.5-0.15-3.36v-4.06l-0.79-10.77h3.81l0.74 4.15 2.08 9.79 0.69 2.42 2.27 6.62h5.04l-0.39-2.72zm-4.35-21.4h-9.2l0.3-0.69v-1.04l-0.3-1.48h9.2l-0.1 1.78z"/>
				<path id="&lt;Path&gt;" class="s2" d="m240.97 124.85v-1.48-2.67-2.42-1.09-0.59-0.79-6.18-2.43-0.98-1.04-2.08h-5.08l-3.81 10.43-3.65-10.03h-4.55l-0.94 0.74 0.59 11.66v21.31l0.69 3.02h5.34v-13.3l-0.64-5.74 0.64 1.34 3.02 7.66 0.74-0.1 2.42-8.35v17.99l0.4 0.69h4.74l0.5-0.44-0.41-8.16z"/>
				<path id="&lt;Compound Path&gt;" class="s2" d="m263.67 134.19l-0.84-5.63-5.58-22.49-0.2-1.88-6.87-0.3-0.3 2.28-1.33 6.37-2.18 11.52-1.88 15.57 4.9 0.45 0.19-1.73 0.79-3.22 0.55-1.43 6.97 0.2 1.14 6.33 1.23-0.4 2.62 0.4h1.09l0.2-0.2-0.2-2.67zm-10.83-5.93l-1.03 0.19 0.79-3.6 1.28-11.72h0.59l2.33 14.88z"/>
				<path id="&lt;Path&gt;" class="s2" d="m286.96 130.29v-6.92l-3.76-2.23-10.43-6.82-0.3-3.31v-2.52h5.49l3.36 0.25v7.11l0.3 0.3 1.48-0.15 2.87 0.15 0.39-0.15v-12.5l-5.83 0.2h-13.4v7.36l0.35 4.1v1.83l0.35 0.94h0.34l4.65 3.36 8.65 5.44v6.48l0.3 1.73-8.6 0.09-0.35-0.29v-10.14h-3.31l-1.63-0.19-0.2 0.19v13.5l-0.25 0.94v0.54l0.3 0.5h19.28v-9.59z"/>
			</g>
		</g>
		<g id="&lt;Group&gt;">
			<g id="&lt;Group&gt;">
			</g>
		</g>
		<g id="&lt;Group&gt;">
			<g id="&lt;Group&gt;">
			</g>
			<g id="&lt;Group&gt;">
			</g>
		</g>
		<g id="&lt;Group&gt;">
			<g id="&lt;Group&gt;">
			</g>
			<g id="&lt;Group&gt;">
			</g>
		</g>
	</g>
</svg>